<svg xmlns="http://www.w3.org/2000/svg" viewBox="0 0 240 260"><defs><linearGradient id="a" x2="1" y2="1"><stop stop-color="#e84b48"/><stop offset="1" stop-color="#7e1825"/></linearGradient></defs><path fill="url(#a)" d="M48 250c8-62 30-83 72-83s64 21 72 83z"/><circle cx="120" cy="102" r="58" fill="#d99071"/><path fill="#3a1d25" d="M61 103c0-63 30-78 62-78 47 0 65 35 57 81-21-25-48-37-85-31-13 3-23 12-34 28z"/><path fill="#3a1d25" d="M61 49c20-25 72-40 111-7l-9 19c-35-16-71-10-102 12z"/><circle cx="96" cy="104" r="7" fill="#1c1720"/><circle cx="144" cy="104" r="7" fill="#1c1720"/><path d="M99 132q21 14 42 0" fill="none" stroke="#7c3340" stroke-width="5" stroke-linecap="round"/><path fill="#e6b75b" d="M181 30l12 21-19-7z"/><path fill="none" stroke="#f4cf74" stroke-width="7" d="M95 72q25-12 50 0"/></svg>
