<svg xmlns="http://www.w3.org/2000/svg" viewBox="0 0 240 260"><path fill="#a53d82" d="M37 255c10-70 37-94 83-94s73 24 83 94z"/><circle cx="120" cy="104" r="55" fill="#c98d73"/><path fill="#43233a" d="M66 103c-5-64 20-90 55-90 45 0 64 37 51 89-18-28-39-44-71-43-14 1-25 12-35 44z"/><path fill="#43233a" d="M66 66q54-55 105-6l-4 21Q120 44 70 83z"/><circle cx="96" cy="105" r="7"/><circle cx="144" cy="105" r="7"/><path d="M99 135q21 12 42 0" fill="none" stroke="#8c3f55" stroke-width="5" stroke-linecap="round"/><circle cx="82" cy="123" r="6" fill="#e96988"/><circle cx="158" cy="123" r="6" fill="#e96988"/><path fill="#e6b75b" d="M120 8l9 14 16 2-12 11 3 16-16-8-15 8 3-16-12-11 16-2z"/></svg>
